# xmcd
#
# Track frame offsets:
#	150
#	23458
#	49499
#	66829
#	83887
#	98445
#	119553
#	134568
#	149322
#	165226
#	183395
#
# Disc length: 2709 seconds
#
# Revision: 1
# Processed by: cddbd v1.5.2PL0 Copyright (c) Steve Scherf et al.
# Submitted via: EasyCDDAExtractor 12.0.1.1
#
DISCID=910a930b
DTITLE=Nitty Gritty Dirt Band - Twenty Years Of Dirt (The Best Of)
DYEAR=1986
DGENRE=Country
TTITLE0=Mr. Bojangles
TTITLE1=Ripplin' Waters
TTITLE2=American Dream
TTITLE3=Make A Little Magic
TTITLE4=Dance Little Jean
TTITLE5=Fire In The Sky
TTITLE6=Long Hard Road (The Sharecropper's Dream)
TTITLE7=High Horse
TTITLE8=Modern Day Romance
TTITLE9=Partners, Brothers And Friends
TTITLE10=Stand A Little Rain
EXTD=
EXTT0=
EXTT1=
EXTT2=
EXTT3=
EXTT4=
EXTT5=
EXTT6=
EXTT7=
EXTT8=
EXTT9=
EXTT10=
PLAYORDER=
